<?xml version="1.0" standalone="yes"?>

<svg version="1.1" viewBox="0.0 0.0 629.0 514.0" fill="none" stroke="none" stroke-linecap="square" stroke-miterlimit="10" xmlns="http://www.w3.org/2000/svg" xmlns:xlink="http://www.w3.org/1999/xlink"><clipPath id="p.0"><path d="m0 0l629.0 0l0 514.0l-629.0 0l0 -514.0z" clip-rule="nonzero"></path></clipPath><g clip-path="url(#p.0)"><path fill="#000000" fill-opacity="0.0" d="m0 0l629.3937 0l0 514.7638l-629.3937 0z" fill-rule="nonzero"></path><path fill="#000000" fill-opacity="0.2615" d="m33.465878 506.56693l67.36696 -99.37009l435.0929 0l67.36694 99.37009z" fill-rule="nonzero"></path><path fill="#efefef" d="m355.71127 382.85303l-74.68503 0l0 -193.19685l37.34253 -48.299225l37.3425 48.299225z" fill-rule="nonzero"></path><path stroke="#b7b7b7" stroke-width="8.0" stroke-linejoin="round" stroke-linecap="butt" d="m355.71127 382.85303l-74.68503 0l0 -193.19685l37.34253 -48.299225l37.3425 48.299225z" fill-rule="nonzero"></path><path fill="#efefef" d="m72.068245 272.78287l0 0c0 -17.919876 14.526939 -32.446823 32.44684 -32.446823l427.70477 0c8.605408 0 16.858398 3.4184875 22.94336 9.5034485c6.084961 6.084976 9.503479 14.337967 9.503479 22.943375l0 129.78348c0 17.919922 -14.526978 32.44687 -32.44684 32.44687l-427.70477 0l0 0c-17.919899 0 -32.44684 -14.526947 -32.44684 -32.44687z" fill-rule="nonzero"></path><path stroke="#b7b7b7" stroke-width="8.0" stroke-linejoin="round" stroke-linecap="butt" d="m72.068245 272.78287l0 0c0 -17.919876 14.526939 -32.446823 32.44684 -32.446823l427.70477 0c8.605408 0 16.858398 3.4184875 22.94336 9.5034485c6.084961 6.084976 9.503479 14.337967 9.503479 22.943375l0 129.78348c0 17.919922 -14.526978 32.44687 -32.44684 32.44687l-427.70477 0l0 0c-17.919899 0 -32.44684 -14.526947 -32.44684 -32.44687z" fill-rule="nonzero"></path><path fill="#b7b7b7" d="m298.979 191.1811l0 0c0 -10.715195 8.686371 -19.40158 19.40158 -19.40158l0 0c5.1455994 0 10.080475 2.044098 13.718964 5.6825867c3.6385193 3.638504 5.682617 8.5733795 5.682617 13.718994l0 0c0 10.715195 -8.686401 19.401566 -19.40158 19.401566l0 0c-10.71521 0 -19.40158 -8.686371 -19.40158 -19.401566z" fill-rule="nonzero"></path><path stroke="#999999" stroke-width="8.0" stroke-linejoin="round" stroke-linecap="butt" d="m298.979 191.1811l0 0c0 -10.715195 8.686371 -19.40158 19.40158 -19.40158l0 0c5.1455994 0 10.080475 2.044098 13.718964 5.6825867c3.6385193 3.638504 5.682617 8.5733795 5.682617 13.718994l0 0c0 10.715195 -8.686401 19.401566 -19.40158 19.401566l0 0c-10.71521 0 -19.40158 -8.686371 -19.40158 -19.401566z" fill-rule="nonzero"></path><path fill="#666666" d="m425.94098 436.87146l0 0c0 -23.117676 18.733551 -41.858246 41.84253 -41.858246l0 0c11.097321 0 21.740143 4.410034 29.587128 12.259979c7.846985 7.8499756 12.255402 18.496765 12.255402 29.598267l0 0c0 23.117706 -18.733551 41.858276 -41.84253 41.858276l0 0c-23.108978 0 -41.84253 -18.74057 -41.84253 -41.858276z" fill-rule="nonzero"></path><path stroke="#595959" stroke-width="8.0" stroke-linejoin="round" stroke-linecap="butt" d="m425.94098 436.87146l0 0c0 -23.117676 18.733551 -41.858246 41.84253 -41.858246l0 0c11.097321 0 21.740143 4.410034 29.587128 12.259979c7.846985 7.8499756 12.255402 18.496765 12.255402 29.598267l0 0c0 23.117706 -18.733551 41.858276 -41.84253 41.858276l0 0c-23.108978 0 -41.84253 -18.74057 -41.84253 -41.858276z" fill-rule="nonzero"></path><path fill="#666666" d="m127.10761 436.87146l0 0c0 -23.117676 18.733528 -41.858246 41.84252 -41.858246l0 0c11.097321 0 21.740128 4.410034 29.587128 12.259979c7.847 7.8499756 12.255386 18.496765 12.255386 29.598267l0 0c0 23.117706 -18.733536 41.858276 -41.842514 41.858276l0 0c-23.108994 0 -41.84252 -18.74057 -41.84252 -41.858276z" fill-rule="nonzero"></path><path stroke="#595959" stroke-width="8.0" stroke-linejoin="round" stroke-linecap="butt" d="m127.10761 436.87146l0 0c0 -23.117676 18.733528 -41.858246 41.84252 -41.858246l0 0c11.097321 0 21.740128 4.410034 29.587128 12.259979c7.847 7.8499756 12.255386 18.496765 12.255386 29.598267l0 0c0 23.117706 -18.733536 41.858276 -41.842514 41.858276l0 0c-23.108994 0 -41.84252 -18.74057 -41.84252 -41.858276z" fill-rule="nonzero"></path><path fill="#b7b7b7" d="m149.54855 436.87146l0 0c0 -10.715179 8.686386 -19.40155 19.40158 -19.40155l0 0c5.1456146 0 10.080475 2.0440674 13.718979 5.6825867c3.638504 3.6384888 5.6825867 8.573364 5.6825867 13.718964l0 0c0 10.71521 -8.686371 19.40158 -19.401566 19.40158l0 0c-10.715195 0 -19.40158 -8.686371 -19.40158 -19.40158z" fill-rule="nonzero"></path><path stroke="#999999" stroke-width="4.0" stroke-linejoin="round" stroke-linecap="butt" d="m149.54855 436.87146l0 0c0 -10.715179 8.686386 -19.40155 19.40158 -19.40155l0 0c5.1456146 0 10.080475 2.0440674 13.718979 5.6825867c3.638504 3.6384888 5.6825867 8.573364 5.6825867 13.718964l0 0c0 10.71521 -8.686371 19.40158 -19.401566 19.40158l0 0c-10.715195 0 -19.40158 -8.686371 -19.40158 -19.40158z" fill-rule="nonzero"></path><path fill="#b7b7b7" d="m448.3832 436.87146l0 0c0 -10.715179 8.686371 -19.40155 19.40158 -19.40155l0 0c5.1455994 0 10.080475 2.0440674 13.718964 5.6825867c3.6385193 3.6384888 5.6825867 8.573364 5.6825867 13.718964l0 0c0 10.71521 -8.686371 19.40158 -19.40155 19.40158l0 0c-10.71521 0 -19.40158 -8.686371 -19.40158 -19.40158z" fill-rule="nonzero"></path><path stroke="#999999" stroke-width="4.0" stroke-linejoin="round" stroke-linecap="butt" d="m448.3832 436.87146l0 0c0 -10.715179 8.686371 -19.40155 19.40158 -19.40155l0 0c5.1455994 0 10.080475 2.0440674 13.718964 5.6825867c3.6385193 3.6384888 5.6825867 8.573364 5.6825867 13.718964l0 0c0 10.71521 -8.686371 19.40158 -19.40155 19.40158l0 0c-10.71521 0 -19.40158 -8.686371 -19.40158 -19.40158z" fill-rule="nonzero"></path></g></svg>

